<?xml version="1.0" standalone="no"?>
<!DOCTYPE svg PUBLIC "-//W3C//DTD SVG 20010904//EN"
 "http://www.w3.org/TR/2001/REC-SVG-20010904/DTD/svg10.dtd">
<svg version="1.0" xmlns="http://www.w3.org/2000/svg"
 width="347.000000pt" height="378.000000pt" viewBox="0 0 347.000000 378.000000"
 preserveAspectRatio="xMidYMid meet">
<metadata>
Created by potrace 1.16, written by Peter Selinger 2001-2019
</metadata>
<g transform="translate(0.000000,378.000000) scale(0.100000,-0.100000)"
fill="#000000" stroke="none">
<path d="M1526 2933 c-46 -24 -51 -25 -102 -13 -50 12 -208 10 -221 -4 -3 -3
4 -17 16 -32 11 -14 19 -30 16 -34 -3 -5 4 -6 15 -3 14 4 23 -2 31 -21 14 -30
25 -32 50 -10 16 14 23 15 48 4 23 -9 31 -19 33 -43 3 -29 6 -32 36 -32 20 0
39 -7 46 -17 19 -27 49 -22 82 13 31 33 82 62 127 73 15 3 27 12 27 20 0 19
-53 89 -83 109 -35 22 -62 20 -121 -10z"/>
<path d="M2031 2881 c-13 -8 -8 -25 28 -100 24 -50 40 -98 37 -107 -3 -8 5
-32 19 -52 l25 -37 123 0 c114 0 126 -2 179 -28 105 -52 158 -142 164 -281 3
-58 7 -74 27 -94 l25 -24 26 44 c28 48 56 121 56 147 0 16 -13 47 -74 170 -85
173 -273 300 -471 318 -51 4 -78 12 -101 30 -34 25 -42 27 -63 14z"/>
<path d="M1694 2721 c-22 -10 -56 -37 -76 -60 -19 -22 -42 -41 -51 -41 -12 0
-17 -9 -17 -32 0 -23 -8 -39 -27 -55 l-28 -23 23 -16 c12 -9 22 -24 22 -33 1
-20 56 -95 63 -84 3 4 8 40 12 78 7 66 10 72 50 107 42 37 66 80 80 146 8 37
4 38 -51 13z"/>
<path d="M1975 2579 c-38 -43 -85 -131 -85 -161 0 -10 -4 -18 -9 -18 -15 0
-23 18 -11 25 14 8 13 45 -1 45 -6 0 -8 7 -5 16 8 21 -11 45 -30 37 -8 -3 -14
1 -14 10 0 21 -19 32 -33 18 -7 -7 -14 -7 -24 0 -7 7 -20 8 -30 3 -10 -4 -27
-8 -38 -8 -13 -1 -21 -9 -23 -23 -2 -13 -10 -23 -17 -23 -19 0 -29 -20 -17
-32 7 -7 7 -16 -1 -30 -9 -15 -9 -20 1 -27 8 -4 13 -14 12 -22 -5 -30 0 -41
16 -35 11 4 18 -1 21 -15 4 -15 11 -19 26 -15 12 3 27 0 34 -6 7 -6 20 -7 30
-2 19 8 29 11 51 13 6 0 12 10 12 21 0 11 6 20 14 20 8 0 17 6 19 13 3 6 6
-21 6 -61 1 -63 3 -73 18 -70 12 2 20 21 29 69 16 85 42 135 97 186 l44 41
-20 36 c-12 20 -24 36 -28 36 -4 0 -23 -18 -44 -41z"/>
<path d="M2290 2469 c-8 -13 -11 -97 -10 -240 1 -214 0 -219 -20 -219 -16 0
-20 6 -20 35 0 19 -4 35 -9 35 -5 0 -16 3 -25 6 -13 5 -16 -1 -16 -31 0 -58
-24 -38 -28 23 -3 46 -6 54 -33 67 l-29 16 0 -53 0 -52 -36 35 c-20 18 -42 46
-50 62 -12 22 -21 27 -54 27 -21 0 -41 -4 -44 -9 -6 -9 33 -70 94 -146 22 -27
45 -64 52 -81 11 -30 13 -31 87 -37 42 -4 105 -16 141 -27 125 -40 241 -23
296 43 24 29 25 31 8 38 -11 4 -40 8 -66 8 -27 1 -48 6 -48 12 0 12 40 53 88
89 l33 25 -35 42 c-20 22 -36 47 -36 55 0 7 -9 -5 -20 -28 -11 -22 -36 -56
-56 -75 l-35 -34 1 162 c2 130 -1 166 -13 184 l-15 21 -12 -23 c-9 -15 -12
-75 -11 -194 2 -167 2 -173 -19 -178 -20 -5 -21 -4 -20 208 1 139 -2 221 -10
234 -13 26 -17 26 -30 0z"/>
<path d="M725 2435 c-5 -2 -27 -6 -48 -10 -31 -5 -41 -12 -52 -38 -10 -24 -10
-36 -2 -45 8 -10 8 -16 -1 -21 -13 -8 -32 -64 -32 -91 1 -12 4 -11 15 4 8 10
12 24 8 29 -4 6 0 8 9 4 20 -7 38 11 38 38 1 19 1 19 11 1 9 -14 8 -20 -2 -27
-10 -6 -11 -13 -4 -24 14 -23 28 -21 40 3 5 11 17 23 27 25 11 3 18 15 19 29
0 12 3 17 6 11 2 -7 9 -13 15 -13 6 0 7 7 4 16 -3 8 -1 20 4 27 6 7 21 28 33
47 l24 36 -51 1 c-28 1 -55 0 -61 -2z"/>
<path d="M993 2401 c-6 -25 -7 -25 -32 -9 -15 9 -24 8 -45 -6 -15 -9 -25 -23
-24 -31 2 -8 -5 -20 -14 -27 -9 -7 -20 -25 -24 -40 -5 -24 -3 -28 15 -28 14 0
21 6 21 20 0 11 5 20 10 20 13 0 13 -37 -1 -45 -6 -4 -8 -14 -5 -22 4 -11 2
-13 -9 -10 -18 7 -27 -6 -19 -27 7 -18 34 -22 34 -5 0 8 5 7 16 -2 14 -12 14
-14 0 -25 -22 -16 -20 -21 12 -37 50 -26 72 -30 72 -13 0 19 38 16 50 -3 11
-19 46 -9 42 12 -2 9 1 17 6 17 14 0 23 -28 12 -35 -6 -4 -10 -19 -10 -34 0
-33 -16 -51 -47 -51 -13 0 -23 -6 -23 -14 0 -18 -27 -29 -36 -14 -4 5 0 14 7
20 10 6 5 8 -16 7 -16 -2 -45 5 -63 15 -18 9 -37 14 -42 11 -6 -3 -10 0 -10 8
0 16 -27 30 -41 21 -5 -3 -9 -14 -9 -26 0 -17 -2 -18 -15 -8 -12 10 -15 10
-16 -1 0 -8 -5 -4 -11 9 -14 29 -40 25 -49 -8 -5 -21 -7 -22 -13 -8 -4 9 -3
25 3 36 6 11 8 22 5 24 -3 3 7 6 21 6 14 0 25 -6 25 -13 0 -18 25 -26 39 -12
15 15 14 27 -9 72 -11 22 -20 45 -20 52 0 7 -4 13 -9 13 -5 0 -11 9 -14 21 -7
28 -41 21 -45 -9 -3 -19 -6 -21 -18 -11 -11 9 -15 6 -20 -20 -6 -26 -9 -29
-21 -19 -13 10 -13 14 2 24 22 16 12 47 -12 42 -10 -2 -19 -14 -21 -26 -3 -20
-6 -21 -20 -10 -14 11 -15 10 -9 -5 4 -10 7 -26 7 -34 0 -13 3 -13 16 -2 13
10 17 10 24 -1 13 -21 -8 -44 -27 -28 -12 10 -13 7 -7 -18 4 -16 10 -36 15
-44 7 -13 8 -13 9 1 0 21 50 23 50 3 0 -8 5 -14 10 -14 6 0 10 -10 10 -22 0
-22 -1 -21 -24 7 l-24 30 -7 -27 c-8 -30 29 -103 46 -92 5 3 13 -6 18 -19 10
-27 31 -45 31 -28 0 6 5 11 10 11 6 0 10 -11 10 -24 0 -13 7 -26 15 -30 17 -6
21 9 5 19 -5 3 -10 14 -10 22 0 14 4 13 20 -5 11 -12 20 -30 20 -41 0 -12 11
-23 31 -30 41 -14 44 -14 29 4 -10 12 -10 15 4 15 9 0 16 -8 16 -20 0 -23 0
-23 34 -10 20 7 27 6 34 -6 4 -8 20 -17 34 -19 22 -4 25 -2 21 14 -5 21 22 37
33 19 4 -7 2 -14 -4 -16 -22 -7 -13 -22 13 -22 14 0 25 6 25 13 0 9 2 9 8 0
12 -20 49 -3 62 27 7 16 23 43 36 61 19 26 24 45 24 93 -1 116 -41 222 -117
307 -24 26 -43 52 -43 59 0 7 -12 26 -26 42 -24 30 -25 30 -31 9z"/>
<path d="M2792 2145 c-80 -35 -89 -48 -94 -128 -5 -104 -39 -159 -128 -205
-64 -34 -66 -34 -170 -29 -73 3 -115 10 -139 22 -41 22 -171 34 -171 16 0 -6
10 -15 22 -20 l23 -8 -23 -7 c-18 -6 -22 -14 -20 -34 3 -27 4 -27 103 -33
l100 -5 -97 -2 c-82 -2 -99 -5 -107 -20 -6 -11 -6 -24 0 -35 8 -14 26 -17 97
-19 l87 -2 -78 -5 -79 -6 24 -22 c35 -33 74 -45 88 -27 17 19 35 18 99 -6 58
-23 201 -37 201 -21 0 5 15 9 33 8 60 -2 107 13 107 35 0 17 3 18 14 9 19 -16
45 -2 85 46 30 36 27 59 -6 46 -7 -3 -13 1 -13 10 0 8 -6 17 -14 20 -16 6 -36
-11 -36 -30 0 -7 -5 -12 -12 -11 -6 2 -17 -8 -24 -20 -8 -18 -14 -20 -20 -11
-4 7 -3 14 4 17 17 5 15 39 -2 45 -16 6 -36 -11 -36 -30 0 -20 -34 -15 -48 7
-7 12 -17 18 -23 14 -7 -4 -6 4 2 17 9 18 13 20 17 9 10 -31 23 -40 38 -25 8
7 14 20 14 28 0 21 33 16 42 -6 11 -26 41 -17 48 13 4 18 8 21 14 11 7 -10 10
-10 16 -1 6 9 10 6 15 -9 9 -29 39 -23 43 7 3 19 6 21 18 11 11 -9 14 -9 14 0
0 7 5 9 10 6 6 -3 10 2 10 13 0 10 3 22 7 26 4 3 8 12 10 19 1 7 7 32 14 57
11 45 7 228 -6 263 -8 20 -29 21 -73 2z"/>
<path d="M1863 1744 l-43 -36 0 -165 0 -166 42 7 c23 4 44 8 45 10 2 2 2 89 1
194 l-3 191 -42 -35z"/>
<path d="M1743 1656 l-42 -21 -1 -121 c0 -118 1 -122 23 -128 12 -3 32 -6 45
-6 22 0 22 1 22 150 0 83 -1 149 -2 149 -2 -1 -22 -11 -45 -23z"/>
<path d="M1580 1557 l0 -94 40 -27 c22 -14 42 -26 45 -26 3 0 5 49 5 109 l0
109 -27 6 c-16 4 -36 9 -45 12 -16 5 -18 -4 -18 -89z"/>
<path d="M2703 1500 c-14 -6 -23 -18 -23 -32 -1 -21 -2 -21 -14 -6 -14 19 -54
15 -73 -9 -7 -9 -13 -11 -18 -4 -12 20 -26 12 -16 -8 8 -15 7 -20 -6 -25 -9
-4 -21 -1 -27 5 -8 8 -8 13 2 16 22 8 13 25 -10 17 -13 -4 -31 -7 -41 -6 -13
1 -16 -4 -12 -19 4 -11 2 -19 -4 -19 -6 0 -11 11 -11 25 0 21 -5 25 -29 25
-33 0 -51 -29 -26 -42 17 -10 21 -48 5 -48 -7 0 -8 -13 -4 -35 5 -30 4 -35
-14 -35 -13 0 -21 -9 -25 -27 -5 -23 2 -36 38 -72 43 -44 44 -44 82 -33 62 18
212 159 197 183 -8 14 -24 0 -24 -20 0 -13 -8 -18 -25 -18 -15 0 -25 5 -25 13
0 8 -4 14 -10 14 -5 0 -10 10 -9 23 l0 22 11 -23 c14 -29 40 -25 48 8 4 18 8
21 14 11 7 -11 10 -11 17 0 8 12 10 12 18 1 7 -11 9 -10 14 3 4 9 3 13 -3 10
-6 -3 -10 1 -10 9 0 10 6 13 15 10 17 -7 21 11 4 21 -7 5 -3 14 10 26 20 19
29 50 14 48 -5 0 -18 -4 -30 -9z"/>
</g>
</svg>
